<?xml version="1.0" encoding="UTF-8"?>
<svg width="472px" height="970px" viewBox="0 0 472 970" version="1.1" xmlns="http://www.w3.org/2000/svg" xmlns:xlink="http://www.w3.org/1999/xlink">
    <title>iPhone Pro Max - svg export</title>
    <g id="iPhone-Pro-Max---svg-export" stroke="none" stroke-width="1" fill="none" fill-rule="evenodd">
        <g id="iPhone-14-Pro-Max" transform="translate(0.000000, 3.000000)">
            <g id="Buttons-+-mute-switch" transform="translate(0.000000, 170.000000)" fill="#36353A" fill-rule="nonzero">
                <g id="Group">
                    <path d="M1.9229139,150 L3.0770861,150 C3.74572515,150 3.98818983,150.069619 4.23263428,150.20035 C4.47707872,150.33108 4.66892015,150.522921 4.79965047,150.767366 C4.93038079,151.01181 5,151.254275 5,151.922914 L5,215.577086 C5,216.245725 4.93038079,216.48819 4.79965047,216.732634 C4.66892015,216.977079 4.47707872,217.16892 4.23263428,217.29965 C3.98818983,217.430381 3.74572515,217.5 3.0770861,217.5 L1.9229139,217.5 C1.25427485,217.5 1.01181017,217.430381 0.767365722,217.29965 C0.522921278,217.16892 0.331079847,216.977079 0.200349528,216.732634 C0.0696192084,216.48819 -5.17920154e-17,216.245725 -5.17920154e-17,215.577086 L-5.17920154e-17,151.922914 C-5.17920154e-17,151.254275 0.0696192084,151.01181 0.200349528,150.767366 C0.331079847,150.522921 0.522921278,150.33108 0.767365722,150.20035 C1.01181017,150.069619 1.25427485,150 1.9229139,150 Z" id="Volume-down"></path>
                    <path d="M1.9229139,64 L3.0770861,64 C3.74572515,64 3.98818983,64.0696192 4.23263428,64.2003495 C4.47707872,64.3310798 4.66892015,64.5229213 4.79965047,64.7673657 C4.93038079,65.0118102 5,65.2542748 5,65.9229139 L5,129.577086 C5,130.245725 4.93038079,130.48819 4.79965047,130.732634 C4.66892015,130.977079 4.47707872,131.16892 4.23263428,131.29965 C3.98818983,131.430381 3.74572515,131.5 3.0770861,131.5 L1.9229139,131.5 C1.25427485,131.5 1.01181017,131.430381 0.767365722,131.29965 C0.522921278,131.16892 0.331079847,130.977079 0.200349528,130.732634 C0.0696192084,130.48819 -5.17920154e-17,130.245725 -5.17920154e-17,129.577086 L-5.17920154e-17,65.9229139 C-5.17920154e-17,65.2542748 0.0696192084,65.0118102 0.200349528,64.7673657 C0.331079847,64.5229213 0.522921278,64.3310798 0.767365722,64.2003495 C1.01181017,64.0696192 1.25427485,64 1.9229139,64 Z" id="Volume-up"></path>
                    <path d="M1.9229139,-7.76880231e-17 L3.0770861,-7.76880231e-17 C3.74572515,-7.76880231e-17 3.98818983,0.0696192084 4.23263428,0.200349528 C4.47707872,0.331079847 4.66892015,0.522921278 4.79965047,0.767365722 C4.93038079,1.01181017 5,1.25427485 5,1.9229139 L5,32.0770861 C5,32.7457252 4.93038079,32.9881898 4.79965047,33.2326343 C4.66892015,33.4770787 4.47707872,33.6689202 4.23263428,33.7996505 C3.98818983,33.9303808 3.74572515,34 3.0770861,34 L1.9229139,34 C1.25427485,34 1.01181017,33.9303808 0.767365722,33.7996505 C0.522921278,33.6689202 0.331079847,33.4770787 0.200349528,33.2326343 C0.0696192084,32.9881898 -5.17920154e-17,32.7457252 -5.17920154e-17,32.0770861 L-5.17920154e-17,1.9229139 C-5.17920154e-17,1.25427485 0.0696192084,1.01181017 0.200349528,0.767365722 C0.331079847,0.522921278 0.522921278,0.331079847 0.767365722,0.200349528 C1.01181017,0.0696192084 1.25427485,-7.76880231e-17 1.9229139,-7.76880231e-17 Z" id="Mute-switch"></path>
                </g>
                <path d="M468.410137,111 L470.589863,111 C471.080198,111 471.258006,111.051054 471.437265,111.146923 C471.616524,111.242792 471.757208,111.383476 471.853077,111.562735 C471.948946,111.741994 472,111.919802 472,112.410137 L472,215.589863 C472,216.080198 471.948946,216.258006 471.853077,216.437265 C471.757208,216.616524 471.616524,216.757208 471.437265,216.853077 C471.258006,216.948946 471.080198,217 470.589863,217 L468.410137,217 C467.919802,217 467.741994,216.948946 467.562735,216.853077 C467.383476,216.757208 467.242792,216.616524 467.146923,216.437265 C467.051054,216.258006 467,216.080198 467,215.589863 L467,112.410137 C467,111.919802 467.051054,111.741994 467.146923,111.562735 C467.242792,111.383476 467.383476,111.242792 467.562735,111.146923 C467.741994,111.051054 467.919802,111 468.410137,111 Z" id="Power"></path>
            </g>
            <g id="Group" transform="translate(5.000000, 0.000000)">
                <path d="M410.002268,0 C438.721075,0 462.002268,23.281193 462.002268,52 L462.002268,912 C462.002268,940.718807 438.721075,964 410.002268,964 L52,964 C23.281193,964 0,940.718807 0,912 L0,52 C0,23.281193 23.281193,0 52,0 L410.002268,0 Z M409.502268,16.5 L52.5,16.5 C42.5588745,16.5 33.5588746,20.5294374 27.044156,27.044156 C20.5294374,33.5588746 16.5,42.5588745 16.5,52.5 L16.5,911.5 C16.5,921.441125 20.5294374,930.441125 27.044156,936.955844 C33.5588746,943.470563 42.5588745,947.5 52.5,947.5 L409.502268,947.5 C419.443393,947.5 428.443393,943.470563 434.958112,936.955844 C441.472831,930.441125 445.502268,921.441125 445.502268,911.5 L445.502268,52.5 C445.502268,42.5588745 441.472831,33.5588746 434.958112,27.044156 C428.443393,20.5294374 419.443393,16.5 409.502268,16.5 Z" id="Fill" fill="#000000" fill-rule="nonzero"></path>
                <path d="M99.555408,0 L362.44686,0 C378.298663,0 394.150465,0 410.002268,0 C438.721075,0 462.002268,23.281193 462.002268,52 C462.002268,67.8518027 462.002268,83.7036053 462.002268,99.555408 L462.002268,864.444592 C462.002268,880.296395 462.002268,896.148197 462.002268,912 C462.002268,940.718807 438.721075,964 410.002268,964 C394.150465,964 378.298663,964 362.44686,964 L99.555408,964 C83.7036053,964 67.8518027,964 52,964 C23.281193,964 0,940.718807 0,912 C0,896.148197 0,880.296395 0,864.444592 L0,99.555408 C0,83.7036053 0,67.8518027 0,52 C0,23.281193 23.281193,0 52,0 C67.8518027,0 83.7036053,0 99.555408,0 Z" id="Inner-Bezel-Copy" stroke="#36353A" stroke-width="6"></path>
                <g id="Speaker-cutout" transform="translate(188.681315, 3.998995)" fill-rule="nonzero">
                    <g id="path-1-link" fill="#1E1A24">
                        <path d="M83.238762,2.49969394 L2.738762,2.49969394 C1.304355,2.49969394 0.126451,1.40147883 -3.04040088e-23,0 L85.977523,0 C85.851072,1.40147883 84.673168,2.49969394 83.238762,2.49969394 Z" id="path-1"></path>
                    </g>
                    <g id="path-1-link" fill="#000000">
                        <path d="M83.238762,2.49969394 L2.738762,2.49969394 C1.304355,2.49969394 0.126451,1.40147883 -3.04040088e-23,0 L85.977523,0 C85.851072,1.40147883 84.673168,2.49969394 83.238762,2.49969394 Z" id="path-1"></path>
                    </g>
                </g>
            </g>
        </g>
    </g>
</svg>